<svg width="26" height="20" viewBox="0 0 26 20" fill="none" xmlns="http://www.w3.org/2000/svg">
<path d="M2.20455 19.3774H6.18182V9.71833L0.5 5.45697V17.6729C0.5 18.6161 1.2642 19.3774 2.20455 19.3774Z" fill="#4285F4"/>
<path d="M19.8179 19.3774H23.7951C24.7383 19.3774 25.4997 18.6132 25.4997 17.6729V5.45697L19.8179 9.71833" fill="#34A853"/>
<path d="M19.8179 2.33197V9.71833L25.4997 5.45697V3.18424C25.4997 1.07629 23.0934 -0.125416 21.4088 1.13879" fill="#FBBC04"/>
<path d="M6.18213 9.71833V2.33197L13.0003 7.44561L19.8185 2.33197V9.71833L13.0003 14.832" fill="#EA4335"/>
<path d="M0.5 3.18424V5.45697L6.18182 9.71833V2.33197L4.59091 1.13879C2.90341 -0.125416 0.5 1.07629 0.5 3.18424Z" fill="#C5221F"/>
</svg>
