<svg width="24" height="24" viewBox="0 0 24 24" fill="none" xmlns="http://www.w3.org/2000/svg">
<path d="M23.44 12.2708C23.44 11.4258 23.3642 10.6133 23.2233 9.83331H12V14.4483H18.4133C18.1317 15.9325 17.2867 17.1891 16.0192 18.0341V21.035H19.8867C22.14 18.955 23.44 15.9 23.44 12.2708Z" fill="#4285F4"/>
<path d="M12.0001 23.9167C15.2176 23.9167 17.9152 22.855 19.8868 21.035L16.0193 18.0342C14.9576 18.7492 13.6035 19.1825 12.0001 19.1825C8.90182 19.1825 6.26932 17.0917 5.32682 14.275H1.36182V17.3517C3.32265 21.2409 7.34182 23.9167 12.0001 23.9167Z" fill="#34A853"/>
<path d="M5.32683 14.2642C5.0885 13.5492 4.94766 12.7908 4.94766 12C4.94766 11.2092 5.0885 10.4508 5.32683 9.73585V6.65918H1.36183C0.54933 8.26251 0.0834961 10.0717 0.0834961 12C0.0834961 13.9283 0.54933 15.7375 1.36183 17.3408L4.44933 14.9358L5.32683 14.2642Z" fill="#FBBC05"/>
<path d="M12.0001 4.82831C13.7551 4.82831 15.3151 5.43498 16.561 6.60498L19.9735 3.19248C17.9043 1.26415 15.2176 0.083313 12.0001 0.083313C7.34182 0.083313 3.32265 2.75915 1.36182 6.65915L5.32682 9.73581C6.26932 6.91915 8.90182 4.82831 12.0001 4.82831Z" fill="#EA4335"/>
</svg>
