<svg width="26" height="28" viewBox="0 0 26 28" fill="none" xmlns="http://www.w3.org/2000/svg">
<g clip-path="url(#clip0_54_77)">
<path d="M10.4547 0.652832L10.3087 0.73932C10.0764 0.876902 9.85751 1.03073 9.65328 1.19881L10.0745 0.908714H13.65L14.3 5.72727L11.05 8.90909L7.8 11.1207V13.6709C7.8 15.4521 8.75089 17.1038 10.3073 18.0261L13.7287 20.0537L6.5 24.1819H5.10581L2.50729 22.6421C0.950859 21.7197 0 20.068 0 18.2869V9.71129C0 7.92953 0.951463 6.27741 2.50869 5.35525L10.3087 0.736189C10.357 0.707566 10.4057 0.679782 10.4547 0.652832Z" fill="url(#paint0_radial_54_77)"/>
<path d="M10.4547 0.652832L10.3087 0.73932C10.0764 0.876902 9.85751 1.03073 9.65328 1.19881L10.0745 0.908714H13.65L14.3 5.72727L11.05 8.90909L7.8 11.1207V13.6709C7.8 15.4521 8.75089 17.1038 10.3073 18.0261L13.7287 20.0537L6.5 24.1819H5.10581L2.50729 22.6421C0.950859 21.7197 0 20.068 0 18.2869V9.71129C0 7.92953 0.951463 6.27741 2.50869 5.35525L10.3087 0.736189C10.357 0.707566 10.4057 0.679782 10.4547 0.652832Z" fill="url(#paint1_linear_54_77)"/>
<path d="M18.1999 10.8182V13.6693C18.1999 15.4505 17.249 17.1021 15.6926 18.0245L7.8926 22.6468C6.29698 23.5924 4.31169 23.6265 2.68799 22.7492L10.3072 27.2644C11.9624 28.2453 14.0372 28.2453 15.6926 27.2644L23.4926 22.642C25.049 21.7197 25.9999 20.068 25.9999 18.2868V16.2273L25.3499 15.2727L18.1999 10.8182Z" fill="url(#paint2_radial_54_77)"/>
<path d="M18.1999 10.8182V13.6693C18.1999 15.4505 17.249 17.1021 15.6926 18.0245L7.8926 22.6468C6.29698 23.5924 4.31169 23.6265 2.68799 22.7492L10.3072 27.2644C11.9624 28.2453 14.0372 28.2453 15.6926 27.2644L23.4926 22.642C25.049 21.7197 25.9999 20.068 25.9999 18.2868V16.2273L25.3499 15.2727L18.1999 10.8182Z" fill="url(#paint3_linear_54_77)"/>
<path d="M23.4911 5.35519L15.6911 0.736134C14.0878 -0.213366 12.0912 -0.242778 10.4634 0.647889L10.3085 0.739653C8.75128 1.66182 7.7998 3.31391 7.7998 5.09568V11.1309L10.3085 9.64524C11.9631 8.66543 14.0365 8.66543 15.6911 9.64524L23.4911 14.2643C24.9996 15.1577 25.9397 16.736 25.997 18.4536C25.9989 18.3981 25.9998 18.3425 25.9998 18.2868V9.71123C25.9998 7.92947 25.0483 6.27735 23.4911 5.35519Z" fill="url(#paint4_radial_54_77)"/>
<path d="M23.4911 5.35519L15.6911 0.736134C14.0878 -0.213366 12.0912 -0.242778 10.4634 0.647889L10.3085 0.739653C8.75128 1.66182 7.7998 3.31391 7.7998 5.09568V11.1309L10.3085 9.64524C11.9631 8.66543 14.0365 8.66543 15.6911 9.64524L23.4911 14.2643C24.9996 15.1577 25.9397 16.736 25.997 18.4536C25.9989 18.3981 25.9998 18.3425 25.9998 18.2868V9.71123C25.9998 7.92947 25.0483 6.27735 23.4911 5.35519Z" fill="url(#paint5_linear_54_77)"/>
</g>
<defs>
<radialGradient id="paint0_radial_54_77" cx="0" cy="0" r="1" gradientUnits="userSpaceOnUse" gradientTransform="translate(8.72209 5.4971) rotate(110.93) scale(21.2892 37.7274)">
<stop offset="0.06441" stop-color="#AE7FE2"/>
<stop offset="1" stop-color="#0078D4"/>
</radialGradient>
<linearGradient id="paint1_linear_54_77" x1="8.78274" y1="22.8254" x2="5.78564" y2="17.5306" gradientUnits="userSpaceOnUse">
<stop stop-color="#114A8B"/>
<stop offset="1" stop-color="#0078D4" stop-opacity="0"/>
</linearGradient>
<radialGradient id="paint2_radial_54_77" cx="0" cy="0" r="1" gradientUnits="userSpaceOnUse" gradientTransform="translate(4.17935 21.8598) rotate(-8.19404) scale(20.1738 13.0581)">
<stop offset="0.133928" stop-color="#D59DFF"/>
<stop offset="1" stop-color="#5E438F"/>
</radialGradient>
<linearGradient id="paint3_linear_54_77" x1="23.6317" y1="14.8761" x2="20.4097" y2="19.5951" gradientUnits="userSpaceOnUse">
<stop stop-color="#493474"/>
<stop offset="1" stop-color="#8C66BA" stop-opacity="0"/>
</linearGradient>
<radialGradient id="paint4_radial_54_77" cx="0" cy="0" r="1" gradientUnits="userSpaceOnUse" gradientTransform="translate(24.0857 15.5935) rotate(-166.059) scale(16.1795 26.7323)">
<stop offset="0.0584996" stop-color="#50E6FF"/>
<stop offset="1" stop-color="#436DCD"/>
</radialGradient>
<linearGradient id="paint5_linear_54_77" x1="8.43407" y1="0.672351" x2="13.3162" y2="0.672351" gradientUnits="userSpaceOnUse">
<stop stop-color="#2D3F80"/>
<stop offset="1" stop-color="#436DCD" stop-opacity="0"/>
</linearGradient>
<clipPath id="clip0_54_77">
<rect width="26" height="28" fill="white"/>
</clipPath>
</defs>
</svg>
