<svg width="26" height="24" viewBox="0 0 26 24" fill="none" xmlns="http://www.w3.org/2000/svg">
<path d="M25.4998 12.5814C25.5012 12.3859 25.4002 12.204 25.2336 12.1017H25.2307L25.2202 12.0959L16.5574 6.96801C16.52 6.94274 16.4812 6.91964 16.4411 6.89883C16.1066 6.72627 15.7093 6.72627 15.3748 6.89883C15.3348 6.91965 15.296 6.94274 15.2586 6.96801L6.5958 12.0959L6.58534 12.1017C6.32058 12.2664 6.23941 12.6145 6.40405 12.8792C6.45256 12.9573 6.51938 13.0222 6.59871 13.0686L15.2615 18.1965C15.299 18.2215 15.3378 18.2446 15.3778 18.2657C15.7123 18.4382 16.1096 18.4382 16.4441 18.2657C16.484 18.2446 16.5228 18.2216 16.5603 18.1965L25.2231 13.0686C25.3962 12.9677 25.5018 12.7817 25.4998 12.5814Z" fill="#0A2767"/>
<path d="M7.60591 9.15756H13.2908V14.3686H7.60591V9.15756ZM24.3373 3.86047V1.47675C24.351 0.880761 23.8792 0.386382 23.2832 0.372101H8.53093C7.93494 0.386382 7.4632 0.880761 7.47685 1.47675V3.86047L16.1978 6.18604L24.3373 3.86047Z" fill="#0364B8"/>
<path d="M7.47681 3.86047H13.2908V9.09303H7.47681V3.86047Z" fill="#0078D4"/>
<path d="M19.1047 3.86047H13.2908V9.09303L19.1047 14.3256H24.3373V9.09303L19.1047 3.86047Z" fill="#28A8EA"/>
<path d="M13.2908 9.09302H19.1047V14.3256H13.2908V9.09302Z" fill="#0078D4"/>
<path d="M13.2908 14.3256H19.1047V19.5581H13.2908V14.3256Z" fill="#0364B8"/>
<path d="M7.60571 14.3686H13.2906V19.1058H7.60571V14.3686Z" fill="#14447D"/>
<path d="M19.1047 14.3256H24.3373V19.5581H19.1047V14.3256Z" fill="#0078D4"/>
<path d="M25.2337 13.0366L25.2227 13.0424L16.5599 17.9145C16.5221 17.9378 16.4837 17.9599 16.4436 17.9796C16.2965 18.0497 16.1367 18.0893 15.9738 18.0959L15.5006 17.8192C15.4606 17.7991 15.4218 17.7768 15.3843 17.7523L6.60524 12.7419H6.60117L6.31396 12.5814V22.4442C6.31844 23.1022 6.85535 23.6321 7.51338 23.6279H24.3192C24.3291 23.6279 24.3378 23.6232 24.3482 23.6232C24.4872 23.6144 24.6243 23.5858 24.7552 23.5384C24.8118 23.5144 24.8664 23.486 24.9186 23.4535C24.9575 23.4314 25.0244 23.3831 25.0244 23.3831C25.3222 23.1628 25.4985 22.8147 25.5 22.4442V12.5814C25.4998 12.77 25.398 12.944 25.2337 13.0366Z" fill="url(#paint0_linear_509_2833)"/>
<path opacity="0.5" d="M25.0347 12.5424V13.1471L15.9766 19.3837L6.5987 12.7459C6.5987 12.7427 6.59609 12.7401 6.59288 12.7401L5.73242 12.2227V11.7866L6.08708 11.7808L6.83707 12.211L6.8545 12.2168L6.91845 12.2575C6.91845 12.2575 15.7324 17.2866 15.7557 17.2982L16.0929 17.4959C16.1219 17.4843 16.151 17.4726 16.1859 17.461C16.2033 17.4494 24.9359 12.5366 24.9359 12.5366L25.0347 12.5424Z" fill="#0A2767"/>
<path d="M25.2337 13.0366L25.2227 13.043L16.5599 17.9151C16.5221 17.9384 16.4837 17.9604 16.4436 17.9802C16.1072 18.1446 15.7137 18.1446 15.3773 17.9802C15.3375 17.9605 15.2987 17.9387 15.261 17.9151L6.59826 13.043L6.5878 13.0366C6.42055 12.9459 6.3157 12.7716 6.31396 12.5814V22.4442C6.31813 23.1021 6.85485 23.6321 7.51275 23.6279C7.51275 23.6279 7.51278 23.6279 7.5128 23.6279H24.3012C24.9591 23.6321 25.4958 23.1021 25.5 22.4442C25.5 22.4442 25.5 22.4442 25.5 22.4442V12.5814C25.4998 12.77 25.398 12.944 25.2337 13.0366Z" fill="#1490DF"/>
<path opacity="0.1" d="M16.6861 17.843L16.5564 17.9157C16.5188 17.9396 16.48 17.9616 16.4401 17.9814C16.2973 18.0515 16.142 18.0926 15.9832 18.1023L19.2791 22L25.0285 23.3855C25.186 23.2665 25.3114 23.11 25.393 22.9302L16.6861 17.843Z" fill="black"/>
<path opacity="0.05" d="M17.2733 17.5128L16.5564 17.9157C16.5188 17.9396 16.48 17.9616 16.4401 17.9814C16.2973 18.0515 16.142 18.0926 15.9832 18.1023L17.5273 22.3599L25.0302 23.3837C25.3258 23.1618 25.4998 22.8138 25.5 22.4442V22.3168L17.2733 17.5128Z" fill="black"/>
<path d="M7.52908 23.6279H24.2994C24.5575 23.6292 24.8091 23.5477 25.0174 23.3953L15.5 17.8203C15.46 17.8003 15.4212 17.778 15.3837 17.7535L6.60465 12.743H6.60058L6.31397 12.5814V22.4105C6.31331 23.0822 6.85733 23.6272 7.52908 23.6279Z" fill="#28A8EA"/>
<path opacity="0.1" d="M14.4535 6.08895V18.4901C14.4525 18.9249 14.1881 19.3157 13.7849 19.4785C13.66 19.5322 13.5255 19.5599 13.3895 19.5599H6.31396V5.60464H7.47676V5.02325H13.3896C13.9769 5.02548 14.4522 5.50159 14.4535 6.08895Z" fill="black"/>
<path opacity="0.2" d="M13.8721 6.67033V19.0715C13.8736 19.2119 13.8438 19.3509 13.7849 19.4784C13.6234 19.8764 13.2376 20.1375 12.8081 20.1395H6.31396V5.60463H12.8081C12.9768 5.60294 13.1431 5.64502 13.2907 5.72673C13.6471 5.90628 13.872 6.27126 13.8721 6.67033Z" fill="black"/>
<path opacity="0.2" d="M13.8721 6.67033V17.9087C13.8693 18.4958 13.3952 18.9716 12.8082 18.9767H6.31396V5.60463H12.8081C12.9768 5.60294 13.1431 5.64502 13.2907 5.72673C13.6471 5.90628 13.872 6.27126 13.8721 6.67033Z" fill="black"/>
<path opacity="0.2" d="M13.2907 6.67034V17.9087C13.2901 18.4967 12.8147 18.9738 12.2268 18.9767H6.31396V5.60464H12.2267C12.8147 5.60496 13.291 6.08183 13.2907 6.66976C13.2907 6.66996 13.2907 6.67015 13.2907 6.67034Z" fill="black"/>
<path d="M1.56569 5.60464H12.225C12.8136 5.60464 13.2907 6.08178 13.2907 6.67034V17.3296C13.2907 17.9182 12.8136 18.3953 12.225 18.3953H1.56569C0.977121 18.3953 0.5 17.9182 0.5 17.3296V6.67034C0.5 6.08178 0.977135 5.60464 1.56569 5.60464Z" fill="url(#paint1_linear_509_2833)"/>
<path d="M3.83081 10.0744C4.09347 9.51481 4.51742 9.0465 5.04826 8.72966C5.63612 8.3931 6.30545 8.22532 6.98256 8.24477C7.61013 8.23116 8.22938 8.39025 8.77267 8.70465C9.28349 9.00928 9.6949 9.45563 9.95697 9.98953C10.2424 10.5778 10.3846 11.2253 10.3721 11.8791C10.3859 12.5623 10.2396 13.2393 9.94477 13.8558C9.67646 14.4088 9.25199 14.8711 8.72384 15.1855C8.1596 15.5095 7.51735 15.6728 6.86686 15.6576C6.22589 15.673 5.59299 15.5121 5.03721 15.1924C4.52197 14.8874 4.1054 14.4406 3.83721 13.9052C3.55012 13.3254 3.40618 12.6852 3.41745 12.0384C3.40549 11.3609 3.5468 10.6896 3.83081 10.0744ZM5.12848 13.2314C5.26852 13.5852 5.50601 13.892 5.81336 14.1163C6.12643 14.3351 6.5013 14.448 6.88313 14.4384C7.28976 14.4545 7.69057 14.3377 8.02499 14.1058C8.32846 13.8822 8.5597 13.5746 8.6901 13.2209C8.83587 12.826 8.90781 12.4076 8.90231 11.9866C8.90682 11.5616 8.83919 11.139 8.70231 10.7366C8.58141 10.3734 8.35762 10.053 8.05813 9.81454C7.73209 9.57165 7.33235 9.44846 6.92615 9.4657C6.53605 9.4556 6.15278 9.56937 5.83139 9.7907C5.51883 10.0159 5.27684 10.3255 5.13371 10.6831C4.81621 11.503 4.81456 12.4116 5.12906 13.2326L5.12848 13.2314Z" fill="white"/>
<path d="M19.1047 3.86047H24.3373V9.09303H19.1047V3.86047Z" fill="#50D9FF"/>
<defs>
<linearGradient id="paint0_linear_509_2833" x1="15.907" y1="12.5814" x2="15.907" y2="23.6279" gradientUnits="userSpaceOnUse">
<stop stop-color="#35B8F1"/>
<stop offset="1" stop-color="#28A8EA"/>
</linearGradient>
<linearGradient id="paint1_linear_509_2833" x1="2.722" y1="4.77193" x2="11.0687" y2="19.228" gradientUnits="userSpaceOnUse">
<stop stop-color="#1784D9"/>
<stop offset="0.5" stop-color="#107AD5"/>
<stop offset="1" stop-color="#0A63C9"/>
</linearGradient>
</defs>
</svg>
