<svg width="256" height="256" viewBox="0 0 256 256" fill="none" xmlns="http://www.w3.org/2000/svg">
<g clip-path="url(#clip0_20_4)">
<path d="M256 0H0V256H256V0Z" fill="#222222"/>
<path d="M123.051 156.065C118.091 154.963 113.683 152.392 110.928 149.698C95.8057 134.576 95.8057 113.147 110.867 98.0858L131.867 77.0858C146.928 62.0858 168.296 62.0246 183.479 77.2082C198.602 92.3307 198.724 113.82 183.54 128.82L167.928 144.249C169.949 137.943 168.785 130.657 166.398 125.025L172.642 118.78C181.642 109.78 181.642 97.2286 172.52 88.1062C163.459 79.045 150.908 79.045 141.847 88.045L121.826 108.065C112.765 117.065 112.826 129.678 121.887 138.8C124.826 141.678 129.602 143.82 134.683 144.494L123.051 156.065ZM137.683 104.453C142.581 105.555 147.051 108.065 149.744 110.82C164.867 125.943 164.867 147.372 149.806 162.433L128.806 183.371C113.806 198.433 92.3772 198.494 77.2547 183.31C62.071 168.188 62.0098 146.698 77.1323 131.698L92.8057 116.208C90.7853 122.514 91.8874 129.861 94.3363 135.433L88.0914 141.678C79.0914 150.739 79.0914 163.29 88.2139 172.412C97.2139 181.474 109.826 181.474 118.826 172.474L138.908 152.453C147.908 143.392 147.908 130.841 138.785 121.718C135.908 118.841 131.132 116.698 126.051 116.025L137.683 104.453Z" fill="white"/>
</g>
<defs>
<clipPath id="clip0_20_4">
<rect width="256" height="256" fill="white"/>
</clipPath>
</defs>
</svg>
